<?xml version="1.0" encoding="UTF-8" standalone="no"?>
<!DOCTYPE svg PUBLIC "-//W3C//DTD SVG 1.1//EN" "http://www.w3.org/Graphics/SVG/1.1/DTD/svg11.dtd">
<!-- 由 Microsoft Visio, SVG Export 生成 visio-graph0.svg Page-1 -->
<svg xmlns="http://www.w3.org/2000/svg" xmlns:xlink="http://www.w3.org/1999/xlink" xmlns:ev="http://www.w3.org/2001/xml-events"
		xmlns:v="http://schemas.microsoft.com/visio/2003/SVGExtensions/" width="1.63788in" height="1.34087in"
		viewBox="0 0 117.928 96.5427" xml:space="preserve" color-interpolation-filters="sRGB" class="st6">
	<v:documentProperties v:langID="2052" v:metric="true" v:viewMarkup="false">
		<v:userDefs>
			<v:ud v:nameU="msvSubprocessMaster" v:prompt="" v:val="VT4(Rectangle)"/>
			<v:ud v:nameU="msvNoAutoConnect" v:val="VT0(1):26"/>
		</v:userDefs>
	</v:documentProperties>

	<style type="text/css">
	<![CDATA[
		.st1 {fill:#4472c4;stroke:#2f528f;stroke-width:0.25}
		.st2 {fill:none;stroke:none;stroke-width:0.25}
		.st3 {fill:#000000;font-family:Times New Roman;font-size:0.499992em}
		.st4 {stroke:#4672c4;stroke-width:0.25}
		.st5 {fill:#a5a5a5;font-family:Times New Roman;font-size:0.499992em}
		.st6 {fill:none;fill-rule:evenodd;font-size:12px;overflow:visible;stroke-linecap:square;stroke-miterlimit:3}
	]]>
	</style>

	<g v:mID="0" v:index="1" v:groupContext="foregroundPage">
		<v:userDefs>
			<v:ud v:nameU="msvThemeOrder" v:val="VT0(0):26"/>
		</v:userDefs>
		<title>页-1</title>
		<v:pageProperties v:drawingScale="0.0393701" v:pageScale="0.0393701" v:drawingUnits="24" v:shadowOffsetX="8.50394"
				v:shadowOffsetY="-8.50394"/>
		<v:layer v:name="连接线" v:index="0"/>
		<g id="shape2-1" v:mID="2" v:groupContext="shape" transform="translate(34.1726,-62.6545)">
			<title>圆形</title>
			<v:userDefs>
				<v:ud v:nameU="visVersion" v:val="VT0(15):26"/>
			</v:userDefs>
			<path d="M0 92.72 A3.82739 3.82739 0 1 1 7.65 92.72 A3.82739 3.82739 0 0 1 0 92.72 Z" class="st1"/>
		</g>
		<g id="shape7-3" v:mID="7" v:groupContext="shape" transform="translate(23.4494,-69.2736)">
			<title>工作表.7</title>
			<desc>v0</desc>
			<v:textBlock v:margins="rect(4,4,4,4)" v:tabSpace="42.5197"/>
			<v:textRect cx="9.189" cy="92.0331" width="18.38" height="9.01903"/>
			<rect x="0" y="87.5236" width="18.378" height="9.01903" class="st2"/>
			<text x="6.19" y="93.83" class="st3" v:langID="2052"><v:paragraph v:horizAlign="1"/><v:tabList/>v0</text>		</g>
		<g id="shape9-6" v:mID="9" v:groupContext="shape" transform="translate(76.1003,-62.6545)">
			<title>圆形.9</title>
			<v:userDefs>
				<v:ud v:nameU="visVersion" v:val="VT0(15):26"/>
			</v:userDefs>
			<path d="M0 92.72 A3.82739 3.82739 0 0 1 7.65 92.72 A3.82739 3.82739 0 1 1 -0 92.72 Z" class="st1"/>
		</g>
		<g id="shape10-8" v:mID="10" v:groupContext="shape" v:layerMember="0" transform="translate(41.8274,-59.3953)">
			<title>动态连接线</title>
			<path d="M0 89.46 L34.27 89.46" class="st4"/>
		</g>
		<g id="shape11-11" v:mID="11" v:groupContext="shape" transform="translate(34.1726,-43.4915)">
			<title>圆形.11</title>
			<v:userDefs>
				<v:ud v:nameU="visVersion" v:val="VT0(15):26"/>
			</v:userDefs>
			<path d="M0 92.72 A3.82739 3.82739 0 1 1 7.65 92.72 A3.82739 3.82739 0 0 1 0 92.72 Z" class="st1"/>
		</g>
		<g id="shape12-13" v:mID="12" v:groupContext="shape" transform="translate(34.1726,-26.2448)">
			<title>圆形.12</title>
			<v:userDefs>
				<v:ud v:nameU="visVersion" v:val="VT0(15):26"/>
			</v:userDefs>
			<path d="M0 92.72 A3.82739 3.82739 0 1 1 7.65 92.72 A3.82739 3.82739 0 0 1 0 92.72 Z" class="st1"/>
		</g>
		<g id="shape13-15" v:mID="13" v:groupContext="shape" transform="translate(55.1365,-26.2448)">
			<title>圆形.13</title>
			<v:userDefs>
				<v:ud v:nameU="visVersion" v:val="VT0(15):26"/>
			</v:userDefs>
			<path d="M0 92.72 A3.82739 3.82739 0 1 1 7.65 92.72 A3.82739 3.82739 0 0 1 0 92.72 Z" class="st1"/>
		</g>
		<g id="shape14-17" v:mID="14" v:groupContext="shape" transform="translate(76.1003,-26.2448)">
			<title>圆形.14</title>
			<v:userDefs>
				<v:ud v:nameU="visVersion" v:val="VT0(15):26"/>
			</v:userDefs>
			<path d="M0 92.72 A3.82739 3.82739 0 1 1 7.65 92.72 A3.82739 3.82739 0 0 1 0 92.72 Z" class="st1"/>
		</g>
		<g id="shape15-19" v:mID="15" v:groupContext="shape" transform="translate(76.1003,-43.4915)">
			<title>圆形.15</title>
			<v:userDefs>
				<v:ud v:nameU="visVersion" v:val="VT0(15):26"/>
			</v:userDefs>
			<path d="M0 92.72 A3.82739 3.82739 0 1 1 7.65 92.72 A3.82739 3.82739 0 0 1 0 92.72 Z" class="st1"/>
		</g>
		<g id="shape17-21" v:mID="17" v:groupContext="shape" v:layerMember="0" transform="translate(30.9134,-63.987)">
			<title>动态连接线.17</title>
			<path d="M7.09 97.88 L7.09 109.38" class="st4"/>
		</g>
		<g id="shape18-24" v:mID="18" v:groupContext="shape" v:layerMember="0" transform="translate(30.9134,-45.7821)">
			<title>动态连接线.18</title>
			<path d="M7.09 98.83 L7.09 108.43" class="st4"/>
		</g>
		<g id="shape19-27" v:mID="19" v:groupContext="shape" v:layerMember="0" transform="translate(41.3953,-37.1588)">
			<title>动态连接线.19</title>
			<path d="M0.43 103.63 L13.74 103.63" class="st4"/>
		</g>
		<g id="shape20-30" v:mID="20" v:groupContext="shape" v:layerMember="0" transform="translate(62.3592,-22.9855)">
			<title>动态连接线.20</title>
			<path d="M0.43 89.46 L13.74 89.46" class="st4"/>
		</g>
		<g id="shape21-33" v:mID="21" v:groupContext="shape" v:layerMember="0" transform="translate(87.0143,-31.6089)">
			<title>动态连接线.21</title>
			<path d="M-7.09 94.25 L-7.09 84.66" class="st4"/>
		</g>
		<g id="shape22-36" v:mID="22" v:groupContext="shape" v:layerMember="0" transform="translate(87.0143,-63.987)">
			<title>动态连接线.22</title>
			<path d="M-7.09 97.88 L-7.09 109.38" class="st4"/>
		</g>
		<g id="shape24-39" v:mID="24" v:groupContext="shape" v:layerMember="0" transform="translate(41.8274,-47.3189)">
			<title>动态连接线.24</title>
			<path d="M0 96.54 L34.68 79.1" class="st4"/>
		</g>
		<g id="shape25-42" v:mID="25" v:groupContext="shape" transform="translate(76.1003,-68.1138)">
			<title>工作表.25</title>
			<desc>v2</desc>
			<v:textBlock v:margins="rect(4,4,4,4)" v:tabSpace="42.5197"/>
			<v:textRect cx="9.189" cy="92.0331" width="18.38" height="9.01903"/>
			<rect x="0" y="87.5236" width="18.378" height="9.01903" class="st2"/>
			<text x="6.19" y="93.83" class="st3" v:langID="2052"><v:paragraph v:horizAlign="1"/><v:tabList/>v2</text>		</g>
		<g id="shape26-45" v:mID="26" v:groupContext="shape" transform="translate(78.4391,-46.5965)">
			<title>工作表.26</title>
			<desc>v5</desc>
			<v:textBlock v:margins="rect(4,4,4,4)" v:tabSpace="42.5197"/>
			<v:textRect cx="9.189" cy="92.0331" width="18.38" height="9.01903"/>
			<rect x="0" y="87.5236" width="18.378" height="9.01903" class="st2"/>
			<text x="6.19" y="93.83" class="st3" v:langID="2052"><v:paragraph v:horizAlign="1"/><v:tabList/>v5</text>		</g>
		<g id="shape27-48" v:mID="27" v:groupContext="shape" transform="translate(79.8092,-25.5626)">
			<title>工作表.27</title>
			<desc>v6</desc>
			<v:textBlock v:margins="rect(4,4,4,4)" v:tabSpace="42.5197"/>
			<v:textRect cx="9.189" cy="92.0331" width="18.38" height="9.01903"/>
			<rect x="0" y="87.5236" width="18.378" height="9.01903" class="st2"/>
			<text x="6.19" y="93.83" class="st3" v:langID="2052"><v:paragraph v:horizAlign="1"/><v:tabList/>v6</text>		</g>
		<g id="shape28-51" v:mID="28" v:groupContext="shape" transform="translate(49.7749,-18.25)">
			<title>工作表.28</title>
			<desc>v4</desc>
			<v:textBlock v:margins="rect(4,4,4,4)" v:tabSpace="42.5197"/>
			<v:textRect cx="9.189" cy="92.0331" width="18.38" height="9.01903"/>
			<rect x="0" y="87.5236" width="18.378" height="9.01903" class="st2"/>
			<text x="6.19" y="93.83" class="st3" v:langID="2052"><v:paragraph v:horizAlign="1"/><v:tabList/>v4</text>		</g>
		<g id="shape29-54" v:mID="29" v:groupContext="shape" transform="translate(25.9509,-18.25)">
			<title>工作表.29</title>
			<desc>v3</desc>
			<v:textBlock v:margins="rect(4,4,4,4)" v:tabSpace="42.5197"/>
			<v:textRect cx="9.189" cy="92.0331" width="18.38" height="9.01903"/>
			<rect x="0" y="87.5236" width="18.378" height="9.01903" class="st2"/>
			<text x="6.19" y="93.83" class="st3" v:langID="2052"><v:paragraph v:horizAlign="1"/><v:tabList/>v3</text>		</g>
		<g id="shape30-57" v:mID="30" v:groupContext="shape" transform="translate(19.5966,-42.8094)">
			<title>工作表.30</title>
			<desc>v1</desc>
			<v:textBlock v:margins="rect(4,4,4,4)" v:tabSpace="42.5197"/>
			<v:textRect cx="9.189" cy="92.0331" width="18.38" height="9.01903"/>
			<rect x="0" y="87.5236" width="18.378" height="9.01903" class="st2"/>
			<text x="6.19" y="93.83" class="st3" v:langID="2052"><v:paragraph v:horizAlign="1"/><v:tabList/>v1</text>		</g>
		<g id="shape31-60" v:mID="31" v:groupContext="shape" transform="translate(44.4132,-66.439)">
			<title>工作表.31</title>
			<desc>6</desc>
			<v:textBlock v:margins="rect(4,4,4,4)" v:tabSpace="42.5197"/>
			<v:textRect cx="9.189" cy="92.0331" width="18.38" height="9.01903"/>
			<rect x="0" y="87.5236" width="18.378" height="9.01903" class="st2"/>
			<text x="7.69" y="93.83" class="st5" v:langID="2052"><v:paragraph v:horizAlign="1"/><v:tabList/>6</text>		</g>
		<g id="shape32-63" v:mID="32" v:groupContext="shape" transform="translate(26.8846,-52.2657)">
			<title>工作表.32</title>
			<desc>3</desc>
			<v:textBlock v:margins="rect(4,4,4,4)" v:tabSpace="42.5197"/>
			<v:textRect cx="9.189" cy="92.0331" width="18.38" height="9.01903"/>
			<rect x="0" y="87.5236" width="18.378" height="9.01903" class="st2"/>
			<text x="7.69" y="93.83" class="st5" v:langID="2052"><v:paragraph v:horizAlign="1"/><v:tabList/>3</text>		</g>
		<g id="shape33-66" v:mID="33" v:groupContext="shape" transform="translate(26.8846,-34.9238)">
			<title>工作表.33</title>
			<desc>2</desc>
			<v:textBlock v:margins="rect(4,4,4,4)" v:tabSpace="42.5197"/>
			<v:textRect cx="9.189" cy="92.0331" width="18.38" height="9.01903"/>
			<rect x="0" y="87.5236" width="18.378" height="9.01903" class="st2"/>
			<text x="7.69" y="93.83" class="st5" v:langID="2052"><v:paragraph v:horizAlign="1"/><v:tabList/>2</text>		</g>
		<g id="shape34-69" v:mID="34" v:groupContext="shape" transform="translate(38.754,-22.7595)">
			<title>工作表.34</title>
			<desc>3</desc>
			<v:textBlock v:margins="rect(4,4,4,4)" v:tabSpace="42.5197"/>
			<v:textRect cx="9.189" cy="92.0331" width="18.38" height="9.01903"/>
			<rect x="0" y="87.5236" width="18.378" height="9.01903" class="st2"/>
			<text x="7.69" y="93.83" class="st5" v:langID="2052"><v:paragraph v:horizAlign="1"/><v:tabList/>3</text>		</g>
		<g id="shape35-72" v:mID="35" v:groupContext="shape" transform="translate(60.6989,-22.7595)">
			<title>工作表.35</title>
			<desc>1</desc>
			<v:textBlock v:margins="rect(4,4,4,4)" v:tabSpace="42.5197"/>
			<v:textRect cx="9.189" cy="92.0331" width="18.38" height="9.01903"/>
			<rect x="0" y="87.5236" width="18.378" height="9.01903" class="st2"/>
			<text x="7.69" y="93.83" class="st5" v:langID="2052"><v:paragraph v:horizAlign="1"/><v:tabList/>1</text>		</g>
		<g id="shape36-75" v:mID="36" v:groupContext="shape" transform="translate(69.2029,-34.0981)">
			<title>工作表.36</title>
			<desc>1</desc>
			<v:textBlock v:margins="rect(4,4,4,4)" v:tabSpace="42.5197"/>
			<v:textRect cx="9.189" cy="92.0331" width="18.38" height="9.01903"/>
			<rect x="0" y="87.5236" width="18.378" height="9.01903" class="st2"/>
			<text x="7.69" y="93.83" class="st5" v:langID="2052"><v:paragraph v:horizAlign="1"/><v:tabList/>1</text>		</g>
		<g id="shape37-78" v:mID="37" v:groupContext="shape" transform="translate(69.5336,-52.8776)">
			<title>工作表.37</title>
			<desc>1</desc>
			<v:textBlock v:margins="rect(4,4,4,4)" v:tabSpace="42.5197"/>
			<v:textRect cx="9.189" cy="92.0331" width="18.38" height="9.01903"/>
			<rect x="0" y="87.5236" width="18.378" height="9.01903" class="st2"/>
			<text x="7.69" y="93.83" class="st5" v:langID="2052"><v:paragraph v:horizAlign="1"/><v:tabList/>1</text>		</g>
		<g id="shape38-81" v:mID="38" v:groupContext="shape" transform="translate(44.4233,-52.5233)">
			<title>工作表.38</title>
			<desc>4</desc>
			<v:textBlock v:margins="rect(4,4,4,4)" v:tabSpace="42.5197"/>
			<v:textRect cx="9.189" cy="92.0331" width="18.38" height="9.01903"/>
			<rect x="0" y="87.5236" width="18.378" height="9.01903" class="st2"/>
			<text x="7.69" y="93.83" class="st5" v:langID="2052"><v:paragraph v:horizAlign="1"/><v:tabList/>4</text>		</g>
	</g>
</svg>
